<?xml version="1.0" standalone="no"?>
<!DOCTYPE svg PUBLIC "-//W3C//DTD SVG 20010904//EN"
 "http://www.w3.org/TR/2001/REC-SVG-20010904/DTD/svg10.dtd">
<svg version="1.0" xmlns="http://www.w3.org/2000/svg"
 width="300.000000pt" height="300.000000pt" viewBox="0 0 300.000000 300.000000"
 preserveAspectRatio="xMidYMid meet">

<g transform="translate(0.000000,300.000000) scale(0.100000,-0.100000)"
fill="#000000" stroke="none">
<path d="M823 2647 l-663 -332 0 -815 0 -815 670 -335 670 -335 670 335 670
335 0 815 0 815 -536 268 c-294 147 -540 264 -546 261 -6 -4 -8 -3 -5 2 6 10
-233 134 -256 133 -6 0 -310 -149 -674 -332z m637 193 l39 -20 44 21 43 21 42
-21 c23 -11 51 -21 62 -21 12 0 19 -4 16 -9 -3 -5 1 -12 10 -15 24 -9 36 -7
29 4 -4 6 -11 8 -16 5 -5 -4 -9 -1 -9 4 0 6 4 11 9 11 12 0 32 -26 25 -33 -3
-3 70 -44 164 -91 93 -47 172 -82 176 -79 3 4 6 1 6 -7 0 -10 4 -10 17 1 15
12 16 12 10 -3 -6 -16 12 -29 37 -27 5 0 12 -4 15 -9 13 -21 157 -85 185 -83
17 1 27 -1 23 -5 -9 -10 13 -35 24 -28 5 3 9 1 9 -3 0 -5 36 -27 80 -48 44
-21 80 -42 80 -45 0 -4 -17 -15 -37 -25 l-38 -18 32 -13 c17 -7 34 -17 37 -22
2 -4 -220 -120 -494 -257 l-498 -249 -41 19 c-40 18 -42 18 -82 0 l-41 -19
-501 251 -501 250 39 21 40 20 -38 18 c-20 10 -37 20 -37 24 0 3 54 32 120 65
66 33 120 63 120 66 0 4 10 11 23 14 43 13 137 59 137 67 0 5 5 6 10 3 6 -3
10 -1 10 5 0 6 4 9 9 5 5 -3 17 2 25 11 9 8 16 13 16 10 0 -9 264 125 268 135
2 5 9 9 17 9 7 0 61 24 121 54 60 30 113 55 117 55 4 1 25 -8 47 -19z m700
-224 c0 -3 -4 -8 -10 -11 -5 -3 -10 -1 -10 4 0 6 5 11 10 11 6 0 10 -2 10 -4z
m480 -256 c0 -5 -4 -10 -10 -10 -5 0 -10 5 -10 10 0 6 5 10 10 10 6 0 10 -4
10 -10z m-2286 -246 c8 -3 12 -12 9 -20 -3 -8 0 -14 6 -14 6 0 11 7 11 15 0
10 137 -53 433 -201 237 -119 434 -220 435 -225 2 -5 12 -9 22 -9 14 0 18 -6
15 -20 -2 -11 0 -18 5 -15 5 3 13 -3 19 -12 6 -10 11 -13 11 -6 0 6 -4 15 -10
18 -5 3 -10 12 -10 18 0 7 8 3 16 -8 10 -13 14 -35 12 -62 -2 -24 -1 -43 2
-43 3 0 5 -23 5 -52 0 -37 4 -52 15 -55 10 -3 11 -2 4 4 -7 5 -9 23 -4 53 6
37 8 40 9 13 1 -29 3 -31 31 -28 27 4 29 2 20 -15 -7 -12 -7 -21 0 -25 7 -4
10 -202 9 -568 -1 -309 -5 -546 -9 -527 l-7 35 -2 -36 c0 -19 4 -40 9 -45 7
-7 6 -11 -4 -11 -8 0 -13 4 -10 9 3 4 -2 8 -10 8 -8 0 -14 6 -12 13 3 6 7 25
11 41 l6 28 -31 -33 c-25 -28 -30 -41 -30 -86 l0 -53 -460 230 -460 230 0 53
c0 50 -2 53 -32 66 -18 8 -36 13 -40 12 -5 0 -8 26 -8 59 0 53 -2 60 -20 60
-11 0 -20 5 -20 12 0 6 -3 8 -7 5 -3 -4 -12 -2 -20 4 -11 9 -13 114 -11 573 1
308 3 540 5 515 4 -44 5 -45 33 -41 23 3 29 0 33 -19 2 -13 5 1 6 31 1 42 4
51 13 42 19 -19 38 -14 38 9 0 15 -5 19 -15 15 -11 -4 -15 3 -16 27 l-2 32 -7
-35 -7 -35 -2 38 c-1 40 -1 40 23 31z m2244 -228 c1 6 18 18 37 27 l35 17 0
-210 c0 -127 4 -211 10 -215 5 -3 7 0 4 8 -3 9 3 17 18 21 44 11 48 8 48 -40
0 -27 -4 -43 -10 -39 -6 4 -11 -18 -12 -57 -1 -57 -2 -59 -5 -15 -4 43 -7 48
-26 45 -22 -3 -22 -4 -25 -261 l-2 -259 -40 -15 c-40 -16 -40 -17 -40 -69 0
-50 -13 -78 -23 -52 -4 9 -6 8 -6 -2 -1 -17 -42 -43 -149 -94 -40 -19 -86 -44
-101 -55 -16 -11 -31 -17 -35 -14 -4 4 -4 0 0 -10 3 -9 2 -17 -4 -17 -6 0 -13
6 -15 13 -3 6 -6 -14 -6 -45 l-1 -58 -80 -40 c-45 -22 -85 -38 -90 -35 -6 4
-10 17 -10 31 0 14 4 22 10 19 12 -8 13 5 1 24 -7 11 -28 4 -107 -34 -152 -73
-164 -77 -165 -63 0 7 -4 4 -8 -7 -5 -11 -12 -20 -17 -20 -5 0 -14 -3 -20 -7
-7 -5 -11 7 -12 33 -2 41 -21 93 -22 58 0 -19 -40 -34 -41 -16 0 7 -4 3 -9 -8
-5 -12 -9 60 -9 182 l-1 202 -27 -15 c-16 -7 -33 -14 -40 -14 -6 0 -14 -6 -16
-12 -3 -7 -6 37 -6 97 l-1 110 43 20 42 21 5 206 c3 114 7 208 10 210 3 2 19
11 35 20 26 14 31 24 35 69 l5 52 162 81 162 81 1 52 c0 48 3 54 30 68 17 9
30 12 30 8 0 -5 5 -1 10 7 7 12 12 12 22 2 15 -15 28 -16 28 -1 0 5 -4 7 -10
4 -5 -3 -10 -2 -10 3 0 7 14 16 63 40 4 2 7 -18 6 -45 0 -26 -3 -43 -5 -36 -6
13 -34 6 -34 -8 0 -22 51 -3 208 75 l167 85 6 -57 c3 -31 6 -52 7 -46z m145
-43 c-7 -3 -14 -21 -14 -41 -1 -37 -1 -37 -8 -7 -7 29 14 74 28 59 3 -4 0 -9
-6 -11z m-1156 -1135 c-3 -7 -5 -2 -5 12 0 14 2 19 5 13 2 -7 2 -19 0 -25z
m878 -98 c-3 -5 -12 -10 -18 -10 -7 0 -6 4 3 10 19 12 23 12 15 0z"/>
<path d="M402 2040 c0 -14 2 -19 5 -12 2 6 2 18 0 25 -3 6 -5 1 -5 -13z"/>
<path d="M1250 1576 c0 -2 7 -7 16 -10 8 -3 12 -2 9 4 -6 10 -25 14 -25 6z"/>
<path d="M1392 1406 c7 -8 15 -12 17 -11 5 6 -10 25 -20 25 -5 0 -4 -6 3 -14z"/>
<path d="M1331 374 c0 -11 3 -14 6 -6 3 7 2 16 -1 19 -3 4 -6 -2 -5 -13z"/>
<path d="M1275 310 c-16 -7 -17 -9 -3 -9 9 -1 20 4 23 9 7 11 7 11 -20 0z"/>
<path d="M2510 765 c0 -8 5 -15 11 -15 5 0 8 4 5 9 -4 5 0 12 6 14 8 3 6 6 -4
6 -10 1 -18 -6 -18 -14z"/>
</g>
</svg>
